<svg xmlns="http://www.w3.org/2000/svg" xmlns:xlink="http://www.w3.org/1999/xlink" width="157" height="76" viewBox="0 0 157 76">
  <defs>
    <clipPath id="clip-path">
      <rect id="Rectangle_1" data-name="Rectangle 1" width="46" height="44" transform="translate(-271 621)" fill="#fff" opacity="0.48"/>
    </clipPath>
    <clipPath id="clip-path-2">
      <rect id="Rectangle_2" data-name="Rectangle 2" width="157" height="28" transform="translate(-210 540)" fill="#fff" opacity="0.59"/>
    </clipPath>
  </defs>
  <g id="Group_1" data-name="Group 1" transform="translate(308 -629)">
    <g id="Mask_Group_1" data-name="Mask Group 1" transform="translate(19 8)" clip-path="url(#clip-path)">
      <g id="Group_1687" data-name="Group 1687" transform="translate(-359.998 576)">
        <path id="Vector" d="M20,0A20,20,0,1,0,34.142,5.858,20,20,0,0,0,20,0Zm0,7.5a12.5,12.5,0,1,0,8.839,3.661A12.5,12.5,0,0,0,20,7.5ZM27.5,30c8.333-6.667,9.167-15.654,2.5-27.321" transform="translate(92 47)" fill="none" stroke="#fff" stroke-linejoin="round" stroke-width="3"/>
        <path id="Stringle" d="M7.44.168a7.957,7.957,0,0,1-3.156-.6A5.182,5.182,0,0,1,2.064-2.16a4.55,4.55,0,0,1-.84-2.664h3.6a2.328,2.328,0,0,0,.732,1.632,2.593,2.593,0,0,0,1.812.6,2.787,2.787,0,0,0,1.848-.564,1.834,1.834,0,0,0,.672-1.476,1.7,1.7,0,0,0-.456-1.224,3.2,3.2,0,0,0-1.14-.756,18.867,18.867,0,0,0-1.884-.612,20.178,20.178,0,0,1-2.652-.948A4.645,4.645,0,0,1,2-9.588a4.035,4.035,0,0,1-.732-2.532,4.527,4.527,0,0,1,.744-2.592A4.732,4.732,0,0,1,4.1-16.4a7.6,7.6,0,0,1,3.072-.588,6.665,6.665,0,0,1,4.212,1.26,4.671,4.671,0,0,1,1.788,3.516H9.48a1.92,1.92,0,0,0-.732-1.428A2.758,2.758,0,0,0,6.936-14.2a2.333,2.333,0,0,0-1.572.5,1.822,1.822,0,0,0-.588,1.464,1.513,1.513,0,0,0,.444,1.116,3.386,3.386,0,0,0,1.1.72q.66.276,1.86.636a19.54,19.54,0,0,1,2.664.96,4.784,4.784,0,0,1,1.776,1.44,4,4,0,0,1,.744,2.52,4.74,4.74,0,0,1-.7,2.5,4.913,4.913,0,0,1-2.04,1.836A6.958,6.958,0,0,1,7.44.168Zm12.744-10.7V-4.1a1.271,1.271,0,0,0,.324.972,1.592,1.592,0,0,0,1.092.3h1.56V0H21.048Q16.8,0,16.8-4.128v-6.408H15.216V-13.3H16.8v-3.288h3.384V-13.3H23.16v2.76Zm8.76-.7a4.724,4.724,0,0,1,1.692-1.656,4.706,4.706,0,0,1,2.388-.6V-9.96h-.888a3.4,3.4,0,0,0-2.388.744,3.43,3.43,0,0,0-.8,2.592V0h-3.36V-13.3h3.36Zm8.04-3.648a2.047,2.047,0,0,1-1.476-.564,1.866,1.866,0,0,1-.588-1.4,1.866,1.866,0,0,1,.588-1.4,2.047,2.047,0,0,1,1.476-.564,2.047,2.047,0,0,1,1.476.564,1.866,1.866,0,0,1,.588,1.4,1.866,1.866,0,0,1-.588,1.4A2.047,2.047,0,0,1,36.984-14.88ZM38.64-13.3V0H35.28V-13.3Zm10.68-.192a5.125,5.125,0,0,1,3.84,1.5A5.743,5.743,0,0,1,54.624-7.8V0h-3.36V-7.344a3.448,3.448,0,0,0-.792-2.436,2.805,2.805,0,0,0-2.16-.852,2.874,2.874,0,0,0-2.2.852,3.415,3.415,0,0,0-.8,2.436V0h-3.36V-13.3h3.36v1.656A4.642,4.642,0,0,1,47.028-13a5.308,5.308,0,0,1,2.292-.488Zm13.7-.024a5.58,5.58,0,0,1,2.616.588,4.817,4.817,0,0,1,1.78,1.528v-1.9H70.8V.1a7.133,7.133,0,0,1-.744,3.3,5.523,5.523,0,0,1-2.232,2.3,7.135,7.135,0,0,1-3.6.852,7.69,7.69,0,0,1-4.644-1.32,4.893,4.893,0,0,1-2.052-3.6h3.336A2.484,2.484,0,0,0,62,3.084a3.972,3.972,0,0,0,2.124.54A3.287,3.287,0,0,0,66.5,2.748,3.518,3.518,0,0,0,67.416.1V-1.968a5.1,5.1,0,0,1-1.788,1.56,5.334,5.334,0,0,1-2.6.624,5.711,5.711,0,0,1-3.072-.864,6.017,6.017,0,0,1-2.2-2.436,7.823,7.823,0,0,1-.8-3.612,7.7,7.7,0,0,1,.8-3.576,5.893,5.893,0,0,1,2.184-2.4,5.815,5.815,0,0,1,3.084-.84Zm4.392,6.864a4.31,4.31,0,0,0-.48-2.1,3.384,3.384,0,0,0-1.3-1.344,3.464,3.464,0,0,0-1.752-.468,3.4,3.4,0,0,0-1.728.456,3.434,3.434,0,0,0-1.284,1.332A4.173,4.173,0,0,0,60.384-6.7a4.31,4.31,0,0,0,.492,2.1,3.542,3.542,0,0,0,1.3,1.38,3.292,3.292,0,0,0,1.716.48A3.464,3.464,0,0,0,65.64-3.2a3.384,3.384,0,0,0,1.3-1.344,4.31,4.31,0,0,0,.476-2.1ZM77.448-17.76V0h-3.36V-17.76ZM93.12-6.936a7.928,7.928,0,0,1-.1,1.3H83.3A3.306,3.306,0,0,0,84.308-3.38a3.108,3.108,0,0,0,2.184.816A2.744,2.744,0,0,0,89.16-4.176h3.624A6.056,6.056,0,0,1,90.576-1.02,6.446,6.446,0,0,1,86.568.216a6.936,6.936,0,0,1-3.444-.852,6,6,0,0,1-2.376-2.412,7.39,7.39,0,0,1-.852-3.6,7.528,7.528,0,0,1,.84-3.624,5.861,5.861,0,0,1,2.352-2.4,7.046,7.046,0,0,1,3.48-.84,6.99,6.99,0,0,1,3.4.816A5.743,5.743,0,0,1,92.3-10.38a7.009,7.009,0,0,1,.824,3.444ZM89.64-7.9a2.665,2.665,0,0,0-.94-2.072,3.316,3.316,0,0,0-2.232-.78,3.05,3.05,0,0,0-2.1.756,3.324,3.324,0,0,0-1.044,2.1Zm15-6.144v4.2h5.64V-7.18h-5.64v4.44H111V0h-9.72V-16.776H111v2.736ZM121.392,0l-2.736-4.128L116.232,0h-3.6l4.344-6.672L112.584-13.3h3.792l2.712,4.1,2.448-4.1h3.6l-4.368,6.624L125.184,0Zm4.752-6.648a7.458,7.458,0,0,1,.84-3.612,6,6,0,0,1,2.328-2.4,6.736,6.736,0,0,1,3.408-.852,6.552,6.552,0,0,1,4.092,1.236,6.012,6.012,0,0,1,2.172,3.468H135.36a2.65,2.65,0,0,0-.972-1.356,2.822,2.822,0,0,0-1.692-.492,2.771,2.771,0,0,0-2.28,1.044,4.621,4.621,0,0,0-.84,2.964,4.578,4.578,0,0,0,.84,2.94,2.771,2.771,0,0,0,2.28,1.044,2.548,2.548,0,0,0,2.664-1.824h3.624A6.133,6.133,0,0,1,136.8-1.056,6.436,6.436,0,0,1,132.72.216a6.736,6.736,0,0,1-3.408-.852,6,6,0,0,1-2.328-2.4,7.458,7.458,0,0,1-.84-3.612Zm22.8-6.84a5.4,5.4,0,0,1,2.688.66,4.548,4.548,0,0,1,1.836,1.944,6.674,6.674,0,0,1,.66,3.084V0h-3.36V-7.344a3.448,3.448,0,0,0-.792-2.436,2.805,2.805,0,0,0-2.16-.852,2.874,2.874,0,0,0-2.2.852,3.415,3.415,0,0,0-.8,2.436V0h-3.36V-17.76h3.36v6.12A4.38,4.38,0,0,1,146.544-13a5.722,5.722,0,0,1,2.4-.488Z" transform="translate(151 76)" fill="#fff"/>
      </g>
    </g>
    <g id="Mask_Group_2" data-name="Mask Group 2" transform="translate(-98 137)" clip-path="url(#clip-path-2)">
      <g id="logo" transform="translate(-342.998 495)">
        <g id="Group_1687-2" data-name="Group 1687" transform="translate(-17 -11)">
          <path id="Vector-2" data-name="Vector" d="M20,0A20,20,0,1,0,34.142,5.858,20,20,0,0,0,20,0Zm0,7.5a12.5,12.5,0,1,0,8.839,3.661A12.5,12.5,0,0,0,20,7.5ZM27.5,30c8.333-6.667,9.167-15.654,2.5-27.321" transform="translate(92 47)" fill="none" stroke="#3db39e" stroke-linejoin="round" stroke-width="3"/>
          <path id="Stringle-2" data-name="Stringle" d="M7.44.168a7.957,7.957,0,0,1-3.156-.6A5.182,5.182,0,0,1,2.064-2.16a4.55,4.55,0,0,1-.84-2.664h3.6a2.328,2.328,0,0,0,.732,1.632,2.593,2.593,0,0,0,1.812.6,2.787,2.787,0,0,0,1.848-.564,1.834,1.834,0,0,0,.672-1.476,1.7,1.7,0,0,0-.456-1.224,3.2,3.2,0,0,0-1.14-.756,18.867,18.867,0,0,0-1.884-.612,20.178,20.178,0,0,1-2.652-.948A4.645,4.645,0,0,1,2-9.588a4.035,4.035,0,0,1-.732-2.532,4.527,4.527,0,0,1,.744-2.592A4.732,4.732,0,0,1,4.1-16.4a7.6,7.6,0,0,1,3.072-.588,6.665,6.665,0,0,1,4.212,1.26,4.671,4.671,0,0,1,1.788,3.516H9.48a1.92,1.92,0,0,0-.732-1.428A2.758,2.758,0,0,0,6.936-14.2a2.333,2.333,0,0,0-1.572.5,1.822,1.822,0,0,0-.588,1.464,1.513,1.513,0,0,0,.444,1.116,3.386,3.386,0,0,0,1.1.72q.66.276,1.86.636a19.54,19.54,0,0,1,2.664.96,4.784,4.784,0,0,1,1.776,1.44,4,4,0,0,1,.744,2.52,4.74,4.74,0,0,1-.7,2.5,4.913,4.913,0,0,1-2.04,1.836A6.958,6.958,0,0,1,7.44.168Zm12.744-10.7V-4.1a1.271,1.271,0,0,0,.324.972,1.592,1.592,0,0,0,1.092.3h1.56V0H21.048Q16.8,0,16.8-4.128v-6.408H15.216V-13.3H16.8v-3.288h3.384V-13.3H23.16v2.76Zm8.76-.7a4.724,4.724,0,0,1,1.692-1.656,4.706,4.706,0,0,1,2.388-.6V-9.96h-.888a3.4,3.4,0,0,0-2.388.744,3.43,3.43,0,0,0-.8,2.592V0h-3.36V-13.3h3.36Zm8.04-3.648a2.047,2.047,0,0,1-1.476-.564,1.866,1.866,0,0,1-.588-1.4,1.866,1.866,0,0,1,.588-1.4,2.047,2.047,0,0,1,1.476-.564,2.047,2.047,0,0,1,1.476.564,1.866,1.866,0,0,1,.588,1.4,1.866,1.866,0,0,1-.588,1.4A2.047,2.047,0,0,1,36.984-14.88ZM38.64-13.3V0H35.28V-13.3Zm10.68-.192a5.125,5.125,0,0,1,3.84,1.5A5.743,5.743,0,0,1,54.624-7.8V0h-3.36V-7.344a3.448,3.448,0,0,0-.792-2.436,2.805,2.805,0,0,0-2.16-.852,2.874,2.874,0,0,0-2.2.852,3.415,3.415,0,0,0-.8,2.436V0h-3.36V-13.3h3.36v1.656A4.642,4.642,0,0,1,47.028-13a5.308,5.308,0,0,1,2.292-.488Zm13.7-.024a5.58,5.58,0,0,1,2.616.588,4.817,4.817,0,0,1,1.78,1.528v-1.9H70.8V.1a7.133,7.133,0,0,1-.744,3.3,5.523,5.523,0,0,1-2.232,2.3,7.135,7.135,0,0,1-3.6.852,7.69,7.69,0,0,1-4.644-1.32,4.893,4.893,0,0,1-2.052-3.6h3.336A2.484,2.484,0,0,0,62,3.084a3.972,3.972,0,0,0,2.124.54A3.287,3.287,0,0,0,66.5,2.748,3.518,3.518,0,0,0,67.416.1V-1.968a5.1,5.1,0,0,1-1.788,1.56,5.334,5.334,0,0,1-2.6.624,5.711,5.711,0,0,1-3.072-.864,6.017,6.017,0,0,1-2.2-2.436,7.823,7.823,0,0,1-.8-3.612,7.7,7.7,0,0,1,.8-3.576,5.893,5.893,0,0,1,2.184-2.4,5.815,5.815,0,0,1,3.084-.84Zm4.392,6.864a4.31,4.31,0,0,0-.48-2.1,3.384,3.384,0,0,0-1.3-1.344,3.464,3.464,0,0,0-1.752-.468,3.4,3.4,0,0,0-1.728.456,3.434,3.434,0,0,0-1.284,1.332A4.173,4.173,0,0,0,60.384-6.7a4.31,4.31,0,0,0,.492,2.1,3.542,3.542,0,0,0,1.3,1.38,3.292,3.292,0,0,0,1.716.48A3.464,3.464,0,0,0,65.64-3.2a3.384,3.384,0,0,0,1.3-1.344,4.31,4.31,0,0,0,.476-2.1ZM77.448-17.76V0h-3.36V-17.76ZM93.12-6.936a7.928,7.928,0,0,1-.1,1.3H83.3A3.306,3.306,0,0,0,84.308-3.38a3.108,3.108,0,0,0,2.184.816A2.744,2.744,0,0,0,89.16-4.176h3.624A6.056,6.056,0,0,1,90.576-1.02,6.446,6.446,0,0,1,86.568.216a6.936,6.936,0,0,1-3.444-.852,6,6,0,0,1-2.376-2.412,7.39,7.39,0,0,1-.852-3.6,7.528,7.528,0,0,1,.84-3.624,5.861,5.861,0,0,1,2.352-2.4,7.046,7.046,0,0,1,3.48-.84,6.99,6.99,0,0,1,3.4.816A5.743,5.743,0,0,1,92.3-10.38a7.009,7.009,0,0,1,.824,3.444ZM89.64-7.9a2.665,2.665,0,0,0-.94-2.072,3.316,3.316,0,0,0-2.232-.78,3.05,3.05,0,0,0-2.1.756,3.324,3.324,0,0,0-1.044,2.1Zm15-6.144v4.2h5.64V-7.18h-5.64v4.44H111V0h-9.72V-16.776H111v2.736ZM121.392,0l-2.736-4.128L116.232,0h-3.6l4.344-6.672L112.584-13.3h3.792l2.712,4.1,2.448-4.1h3.6l-4.368,6.624L125.184,0Zm4.752-6.648a7.458,7.458,0,0,1,.84-3.612,6,6,0,0,1,2.328-2.4,6.736,6.736,0,0,1,3.408-.852,6.552,6.552,0,0,1,4.092,1.236,6.012,6.012,0,0,1,2.172,3.468H135.36a2.65,2.65,0,0,0-.972-1.356,2.822,2.822,0,0,0-1.692-.492,2.771,2.771,0,0,0-2.28,1.044,4.621,4.621,0,0,0-.84,2.964,4.578,4.578,0,0,0,.84,2.94,2.771,2.771,0,0,0,2.28,1.044,2.548,2.548,0,0,0,2.664-1.824h3.624A6.133,6.133,0,0,1,136.8-1.056,6.436,6.436,0,0,1,132.72.216a6.736,6.736,0,0,1-3.408-.852,6,6,0,0,1-2.328-2.4,7.458,7.458,0,0,1-.84-3.612Zm22.8-6.84a5.4,5.4,0,0,1,2.688.66,4.548,4.548,0,0,1,1.836,1.944,6.674,6.674,0,0,1,.66,3.084V0h-3.36V-7.344a3.448,3.448,0,0,0-.792-2.436,2.805,2.805,0,0,0-2.16-.852,2.874,2.874,0,0,0-2.2.852,3.415,3.415,0,0,0-.8,2.436V0h-3.36V-17.76h3.36v6.12A4.38,4.38,0,0,1,146.544-13a5.722,5.722,0,0,1,2.4-.488Z" transform="translate(151 76)" fill="#fff"/>
        </g>
      </g>
    </g>
  </g>
</svg>
